<?xml version="1.0" encoding="utf-8"?>
<!-- Generator: Adobe Illustrator 21.0.0, SVG Export Plug-In . SVG Version: 6.00 Build 0)  -->
<svg fill="white" version="1.1" id="Capa_1" xmlns="http://www.w3.org/2000/svg" xmlns:xlink="http://www.w3.org/1999/xlink" x="0px" y="0px"
	 width="512px" height="512px" viewBox="0 0 512 512" style="enable-background:new 0 0 512 512;" xml:space="preserve">
<style type="text/css">
	.st0{stroke:#000000;stroke-width:5;stroke-miterlimit:10;}
</style>
<g>
	<g>
		<path class="st0" d="M358.4,21.3c-7.6-3.3-16.4,0.1-19.8,7.7c-3.3,7.6,0.1,16.4,7.7,19.8C428.8,84.8,482,166.1,482,256
			c0,89.9-53.2,171.2-135.6,207.2c-7.6,3.3-11.1,12.2-7.7,19.8c2.5,5.6,8,9,13.8,9c2,0,4-0.4,6-1.3C451.7,449.9,512,357.8,512,256
			C512,154.2,451.7,62.1,358.4,21.3z"/>
	</g>
</g>
<g>
	<g>
		<path class="st0" d="M362.4,137.1c-6.2-5.5-15.7-5-21.2,1.2c-5.5,6.2-5,15.7,1.2,21.2c27.5,24.6,43.2,59.8,43.2,96.6
			c0,36.8-15.7,72-43.2,96.6c-6.2,5.5-6.7,15-1.2,21.2c3,3.3,7.1,5,11.2,5c3.6,0,7.1-1.3,10-3.8c33.8-30.3,53.2-73.6,53.2-118.9
			C415.6,210.7,396.2,167.3,362.4,137.1z"/>
	</g>
</g>
<g>
	<g>
		<path class="st0" d="M262.8,57.9c-5-2.6-11.1-2.1-15.6,1.3l-116.5,85.5H15c-8.3,0-15,6.7-15,15v192.8c0,8.3,6.7,15,15,15h115.6
			l116.5,85.5c2.6,1.9,5.7,2.9,8.9,2.9c2.3,0,4.6-0.5,6.8-1.6c5-2.6,8.2-7.7,8.2-13.4V71.2C271,65.6,267.8,60.4,262.8,57.9z
			 M241,411.2l-96.6-70.9c-2.6-1.9-5.7-2.9-8.9-2.9H30V174.6h105.5c3.2,0,6.3-1,8.9-2.9l96.6-70.9V411.2z"/>
	</g>
</g>
</svg>
