<?xml version="1.0" encoding="utf-8"?>
<!-- Generator: Adobe Illustrator 21.0.0, SVG Export Plug-In . SVG Version: 6.00 Build 0)  -->
<svg fill="#f2df8d" version="1.1" id="Capa_1" xmlns="http://www.w3.org/2000/svg" xmlns:xlink="http://www.w3.org/1999/xlink" x="0px" y="0px"
	 width="512px" height="512px" viewBox="0 0 512 512" style="enable-background:new 0 0 512 512;" xml:space="preserve">
<g>
	<g>
		<path d="M455.1,71.7c-4.2-1.6-8.9-0.3-11.8,3.1c-79.3,92.5-144.7,74.6-266.6,74.6H160c-17.6,0-32,14.4-32,32v149.3
			c0,17.6,14.4,32,32,32h16.6c121.9,0,187.3-16.9,266.6,75.6c2.1,2.4,5,3.7,8.1,3.7c1.3,0,2.5-0.2,3.7-0.7c4.2-1.6,7-5.5,7-10V81.7
			C462,77.2,459.2,73.2,455.1,71.7z M440.7,403.9c-82.3-84.5-145.2-62.5-264-62.5H160c-5.9,0-10.7-4.8-10.7-10.7V181.3
			c0-5.9,4.8-10.7,10.7-10.7h16.6c118.8,0,181.8,23,264-61.5L440.7,403.9L440.7,403.9z"/>
	</g>
</g>
<g>
	<g>
		<path d="M138.7,170.7H53.3C23.9,170.7,0,194.6,0,224v64c0,29.4,23.9,53.3,53.3,53.3h85.3c5.9,0,10.7-4.8,10.7-10.7V181.3
			C149.3,175.5,144.6,170.7,138.7,170.7z M128,320H53.3c-17.6,0-32-14.4-32-32v-64c0-17.6,14.4-32,32-32H128V320z"/>
	</g>
</g>
<g>
	<g>
		<path d="M228.9,461.9c0,0-5.7-6.3-7.4-8.5c-4.6-5.8-9-12.4-13-19.5c-11.6-20.7-14.7-45.2-8.7-69.1l2.6-10.2
			c1.4-5.7-2-11.5-7.8-12.9c-5.6-1.4-11.5,2-12.9,7.8l-2.6,10.2c-7.3,29.2-3.4,59.2,10.8,84.7c4.6,8.1,9.6,15.7,15,22.4
			c1.7,2.2,6.8,7.9,7.1,8c2.7,4.7,0.9,8.9,0,10.5c-0.9,1.6-3.7,5.4-9.3,5.4h-29.8c-15.1,0-27.9-10.3-31.3-25.4L106.3,328
			c-1.5-5.7-7.3-9.2-13-7.7c-5.7,1.5-9.1,7.3-7.7,13l35.2,136.9c5.4,24.6,26.9,41.8,52.1,41.8h29.8c11.7,0,22.1-6.1,27.8-16.2
			C236.3,485.6,236.1,473.5,228.9,461.9z"/>
	</g>
</g>
<g>
	<g>
		<path d="M53.3,234.7c-5.9,0-10.7,4.8-10.7,10.7v21.3c0,5.9,4.8,10.7,10.7,10.7S64,272.6,64,266.7v-21.3
			C64,239.5,59.2,234.7,53.3,234.7z"/>
	</g>
</g>
<g>
	<g>
		<path d="M96,234.7c-5.9,0-10.7,4.8-10.7,10.7v21.3c0,5.9,4.8,10.7,10.7,10.7s10.7-4.8,10.7-10.7v-21.3
			C106.7,239.5,101.9,234.7,96,234.7z"/>
	</g>
</g>
</svg>
