<?xml version="1.0" encoding="utf-8"?>
<!-- Generator: Adobe Illustrator 21.0.0, SVG Export Plug-In . SVG Version: 6.00 Build 0)  -->
<svg fill="#f2df8d" version="1.1" id="Capa_1" xmlns="http://www.w3.org/2000/svg" xmlns:xlink="http://www.w3.org/1999/xlink" x="0px" y="0px"
	 width="512px" height="512px" viewBox="0 0 512 512" style="enable-background:new 0 0 512 512;" xml:space="preserve">
<g>
	<g>
		<path d="M278,408.8H31.5c-9.1,0-16.5-7.4-16.5-16.5V119.2h385.8V270c0,4.1,3.4,7.5,7.5,7.5s7.5-3.4,7.5-7.5V71.6
			c0-17.4-14.2-31.5-31.5-31.5h-8.5v-8.5c0-13-10.6-23.5-23.5-23.5s-23.5,10.6-23.5,23.5v8.5h-247c-4.1,0-7.5,3.4-7.5,7.5
			s3.4,7.5,7.5,7.5h247v8.5c0,13,10.6,23.5,23.5,23.5s23.5-10.6,23.5-23.5v-8.5h8.5c9.1,0,16.5,7.4,16.5,16.5v32.6H15V71.6
			c0-9.1,7.4-16.5,16.5-16.5h8.5v8.5c0,13,10.6,23.5,23.5,23.5s23.5-10.6,23.5-23.5V31.5C87.1,18.6,76.6,8,63.6,8
			S40.1,18.6,40.1,31.5v8.5h-8.5C14.2,40.1,0,54.2,0,71.6v320.6c0,17.4,14.2,31.5,31.5,31.5H278c4.1,0,7.5-3.4,7.5-7.5
			C285.5,412.2,282.1,408.8,278,408.8L278,408.8z M352.2,72.1c-4.7,0-8.5-3.8-8.5-8.5V31.5c0-4.7,3.8-8.5,8.5-8.5s8.5,3.8,8.5,8.5
			v32.1C360.7,68.3,356.9,72.1,352.2,72.1z M55.1,31.5c0-4.7,3.8-8.5,8.5-8.5s8.5,3.8,8.5,8.5v32.1c0,4.7-3.8,8.5-8.5,8.5
			s-8.5-3.8-8.5-8.5V31.5z"/>
		<path d="M278,425.3H31.5c-18.2,0-33-14.8-33-33V71.6c0-18.2,14.8-33,33-33h7v-7c0-13.8,11.2-25,25-25c13.8,0,25,11.2,25,25v7
			h238.5v-7c0-13.8,11.2-25,25-25s25,11.2,25,25v7h7c18.2,0,33,14.8,33,33V270c0,5-4,9-9,9s-9-4-9-9V120.7H16.5v271.6
			c0,8.3,6.8,15,15,15H278c5,0,9,4,9,9S282.9,425.3,278,425.3z M31.5,41.6c-16.6,0-30,13.5-30,30v320.6c0,16.6,13.5,30,30,30H278
			c3.3,0,6-2.7,6-6s-2.7-6-6-6H31.5c-10,0-18-8.1-18-18V117.7h388.8V270c0,3.3,2.7,6,6,6s6-2.7,6-6V71.6c0-16.6-13.5-30-30-30h-10
			v-10c0-12.1-9.9-22-22-22s-22,9.9-22,22v10H88.6v12h241.5v10c0,12.1,9.9,22,22,22s22-9.9,22-22v-10h10c10,0,18,8.1,18,18v34.1
			H13.5V71.6c0-10,8.1-18,18-18h10v10c0,12.1,9.9,22,22,22s22-9.9,22-22v-7h-3.9c-3.5,0-6.6-2-8.1-5v12c0,5.5-4.5,10-10,10
			s-10-4.5-10-10V31.5c0-5.5,4.5-10,10-10s10,4.5,10,10v12c1.5-3,4.5-5,8.1-5h3.9v-7c0-12.1-9.9-22-22-22c-12.1,0-22,9.9-22,22v10
			H31.5z M16.5,102.7h382.8V71.6c0-8.3-6.8-15-15-15h-7v7c0,13.8-11.2,25-25,25s-25-11.2-25-25v-7H88.6v7c0,13.8-11.2,25-25,25
			s-25-11.2-25-25v-7h-7c-8.3,0-15,6.8-15,15V102.7z M63.6,24.5c-3.9,0-7,3.2-7,7v32.1c0,3.9,3.2,7,7,7s7-3.2,7-7V31.5
			C70.6,27.7,67.5,24.5,63.6,24.5z M81.7,41.6c-3.3,0-6,2.7-6,6s2.7,6,6,6h3.9v-12H81.7z M352.2,73.6c-5.5,0-10-4.5-10-10V31.5
			c0-5.5,4.5-10,10-10c5.5,0,10,4.5,10,10v32.1c0,2.7-1,5.2-2.9,7.1C357.4,72.6,354.9,73.6,352.2,73.6z M352.2,24.5
			c-3.9,0-7,3.2-7,7v32.1c0,3.9,3.2,7,7,7c1.9,0,3.6-0.7,5-2.1c1.3-1.3,2.1-3.1,2.1-5V31.5C359.2,27.7,356.1,24.5,352.2,24.5z"/>
	</g>
	<g>
		<path d="M392.3,264.5c-66,0-119.7,53.7-119.7,119.7S326.3,504,392.3,504S512,450.3,512,384.3S458.3,264.5,392.3,264.5L392.3,264.5
			z M392.3,489c-57.7,0-104.7-47-104.7-104.7s47-104.7,104.7-104.7S497,326.5,497,384.3S450,489,392.3,489z"/>
		<path d="M392.3,505.5c-66.8,0-121.2-54.4-121.2-121.2c0-66.8,54.4-121.2,121.2-121.2c66.8,0,121.2,54.4,121.2,121.2
			C513.5,451.1,459.1,505.5,392.3,505.5z M392.3,266c-65.2,0-118.2,53-118.2,118.2c0,65.2,53,118.2,118.2,118.2
			c65.2,0,118.2-53,118.2-118.2C510.5,319.1,457.5,266,392.3,266z M392.3,490.5c-58.6,0-106.2-47.7-106.2-106.2S333.7,278,392.3,278
			s106.2,47.7,106.2,106.2S450.8,490.5,392.3,490.5z M392.3,281C335.4,281,289,327.3,289,384.3s46.3,103.2,103.2,103.2
			s103.2-46.3,103.2-103.2S449.2,281,392.3,281z"/>
	</g>
	<g>
		<path d="M443.1,354.9l-66.5,66.5c0,0-0.2,0.1-0.4,0.1c-0.2,0-0.3-0.1-0.4-0.2L341.5,387c-2.9-2.9-7.7-2.9-10.6,0
			c-2.9,2.9-2.9,7.7,0,10.6l34.4,34.4c2.9,2.9,6.8,4.5,11,4.5s8-1.6,11-4.5l66.5-66.5c2.9-2.9,2.9-7.7,0-10.6
			C450.8,352,446,352,443.1,354.9z"/>
		<path d="M376.2,438c-4.5,0-8.8-1.8-12-5l-34.4-34.4c-1.7-1.7-2.6-4-2.6-6.4c0-2.4,0.9-4.7,2.6-6.4c1.7-1.7,4-2.6,6.4-2.6
			c2.4,0,4.7,0.9,6.4,2.6l33.7,33.7l65.8-65.8c3.5-3.5,9.2-3.5,12.7,0c3.5,3.5,3.5,9.2,0,12.7L388.3,433
			C385.1,436.3,380.8,438,376.2,438z M336.2,386.3c-1.6,0-3.1,0.6-4.2,1.8c-1.1,1.1-1.8,2.6-1.8,4.2s0.6,3.1,1.8,4.2l34.4,34.4
			c2.6,2.6,6.2,4.1,9.9,4.1s7.3-1.5,9.9-4.1l66.5-66.5c2.3-2.3,2.3-6.1,0-8.5c-2.3-2.3-6.1-2.3-8.5,0l-66.5,66.5
			c-0.8,0.8-2.1,0.8-2.9,0L340.4,388C339.3,386.9,337.8,386.3,336.2,386.3z M376.9,420.3L376.9,420.3
			C376.9,420.3,376.9,420.3,376.9,420.3z"/>
	</g>
	<g>
		<path d="M87.7,152.3c-17.4,0-31.5,14.2-31.5,31.5s14.2,31.5,31.5,31.5s31.5-14.2,31.5-31.5C119.2,166.5,105.1,152.3,87.7,152.3z
			 M87.7,200.4c-9.1,0-16.5-7.4-16.5-16.5s7.4-16.5,16.5-16.5s16.5,7.4,16.5,16.5S96.8,200.4,87.7,200.4z"/>
		<path d="M87.7,216.9c-18.2,0-33-14.8-33-33c0-18.2,14.8-33,33-33c18.2,0,33,14.8,33,33C120.7,202.1,105.9,216.9,87.7,216.9z
			 M87.7,153.8c-16.6,0-30,13.5-30,30c0,16.6,13.5,30,30,30c16.6,0,30-13.5,30-30C117.7,167.3,104.2,153.8,87.7,153.8z M87.7,201.9
			c-10,0-18-8.1-18-18c0-10,8.1-18,18-18s18,8.1,18,18C105.7,193.8,97.6,201.9,87.7,201.9z M87.7,168.8c-8.3,0-15,6.8-15,15
			c0,8.3,6.8,15,15,15c8.3,0,15-6.8,15-15C102.7,175.6,96,168.8,87.7,168.8z"/>
	</g>
	<g>
		<path d="M359.7,183.9c0-4.1-3.4-7.5-7.5-7.5H151.8c-4.1,0-7.5,3.4-7.5,7.5c0,4.1,3.4,7.5,7.5,7.5h200.4
			C356.3,191.4,359.7,188,359.7,183.9z"/>
		<path d="M352.2,192.9H151.8c-5,0-9-4-9-9s4-9,9-9h200.4c5,0,9,4,9,9S357.2,192.9,352.2,192.9z M151.8,177.9c-3.3,0-6,2.7-6,6
			s2.7,6,6,6h200.4c3.3,0,6-2.7,6-6s-2.7-6-6-6H151.8z"/>
	</g>
	<g>
		<path d="M87.7,232.5c-17.4,0-31.5,14.2-31.5,31.5s14.2,31.5,31.5,31.5s31.5-14.2,31.5-31.5S105.1,232.5,87.7,232.5L87.7,232.5z
			 M87.7,280.6c-9.1,0-16.5-7.4-16.5-16.5s7.4-16.5,16.5-16.5s16.5,7.4,16.5,16.5C104.2,273.1,96.8,280.6,87.7,280.6z"/>
		<path d="M87.7,297.1c-18.2,0-33-14.8-33-33c0-18.2,14.8-33,33-33c18.2,0,33,14.8,33,33C120.7,282.2,105.9,297.1,87.7,297.1z
			 M87.7,234c-16.6,0-30,13.5-30,30c0,16.6,13.5,30,30,30c16.6,0,30-13.5,30-30C117.7,247.4,104.2,234,87.7,234z M87.7,282.1
			c-10,0-18-8.1-18-18c0-10,8.1-18,18-18s18,8.1,18,18C105.7,274,97.6,282.1,87.7,282.1z M87.7,249c-8.3,0-15,6.8-15,15
			c0,8.3,6.8,15,15,15c8.3,0,15-6.8,15-15C102.7,255.7,96,249,87.7,249z"/>
	</g>
	<g>
		<path d="M303.6,264c0-4.1-3.4-7.5-7.5-7.5H151.8c-4.1,0-7.5,3.4-7.5,7.5s3.4,7.5,7.5,7.5h144.3C300.2,271.5,303.6,268.2,303.6,264
			z"/>
		<path d="M296.1,273H151.8c-5,0-9-4-9-9c0-5,4-9,9-9h144.3c5,0,9,4,9,9C305.1,269,301,273,296.1,273z M151.8,258c-3.3,0-6,2.7-6,6
			s2.7,6,6,6h144.3c3.3,0,6-2.7,6-6s-2.7-6-6-6H151.8z"/>
	</g>
	<g>
		<path d="M87.7,312.6c-17.4,0-31.5,14.2-31.5,31.5s14.2,31.5,31.5,31.5s31.5-14.2,31.5-31.5S105.1,312.6,87.7,312.6z M87.7,360.7
			c-9.1,0-16.5-7.4-16.5-16.5s7.4-16.5,16.5-16.5s16.5,7.4,16.5,16.5C104.2,353.3,96.8,360.7,87.7,360.7z"/>
		<path d="M87.7,377.2c-18.2,0-33-14.8-33-33c0-18.2,14.8-33,33-33c18.2,0,33,14.8,33,33C120.7,362.4,105.9,377.2,87.7,377.2z
			 M87.7,314.1c-16.6,0-30,13.5-30,30c0,16.6,13.5,30,30,30c16.6,0,30-13.5,30-30C117.7,327.6,104.2,314.1,87.7,314.1z M87.7,362.2
			c-10,0-18-8.1-18-18c0-10,8.1-18,18-18s18,8.1,18,18C105.7,354.1,97.6,362.2,87.7,362.2z M87.7,329.1c-8.3,0-15,6.8-15,15
			s6.8,15,15,15c8.3,0,15-6.8,15-15S96,329.1,87.7,329.1z"/>
	</g>
	<g>
		<path d="M151.8,336.7c-4.1,0-7.5,3.4-7.5,7.5c0,4.1,3.4,7.5,7.5,7.5H248c4.1,0,7.5-3.4,7.5-7.5c0-4.1-3.4-7.5-7.5-7.5H151.8z"/>
		<path d="M248,353.2h-96.2c-5,0-9-4-9-9s4-9,9-9H248c5,0,9,4,9,9S252.9,353.2,248,353.2z M151.8,338.2c-3.3,0-6,2.7-6,6s2.7,6,6,6
			H248c3.3,0,6-2.7,6-6s-2.7-6-6-6H151.8z"/>
	</g>
</g>
</svg>
