<?xml version="1.0" encoding="utf-8"?>
<!-- Generator: Adobe Illustrator 21.0.0, SVG Export Plug-In . SVG Version: 6.00 Build 0)  -->
<svg fill="white" version="1.1" id="Capa_1" xmlns="http://www.w3.org/2000/svg" xmlns:xlink="http://www.w3.org/1999/xlink" x="0px" y="0px"
	 width="512px" height="512px" viewBox="0 0 512 512" style="enable-background:new 0 0 512 512;" xml:space="preserve">
<g>
	<g>
		<g>
			<path d="M437,75C388.7,26.6,324.4,0,256,0S123.3,26.6,75,75C26.6,123.3,0,187.6,0,256s26.6,132.7,75,181
				c48.4,48.4,112.6,75,181,75s132.7-26.6,181-75c48.4-48.4,75-112.6,75-181S485.4,123.3,437,75z M256,482
				C131.4,482,30,380.6,30,256S131.4,30,256,30s226,101.4,226,226S380.6,482,256,482z"/>
			<path d="M256,513c-68.6,0-133.2-26.7-181.7-75.3S-1,324.6-1,256S25.7,122.8,74.3,74.3C122.8,25.7,187.4-1,256-1
				s133.2,26.7,181.7,75.3C486.3,122.8,513,187.4,513,256s-26.7,133.2-75.3,181.7S324.6,513,256,513z M256,1
				C187.9,1,123.9,27.5,75.7,75.7C27.5,123.9,1,187.9,1,256s26.5,132.1,74.7,180.3C123.9,484.5,187.9,511,256,511
				s132.1-26.5,180.3-74.7C484.5,388.1,511,324.1,511,256s-26.5-132.1-74.7-180.3C388.1,27.5,324.1,1,256,1z M256,483
				C130.8,483,29,381.2,29,256S130.8,29,256,29s227,101.8,227,227S381.2,483,256,483z M256,31C131.9,31,31,131.9,31,256
				s100.9,225,225,225s225-100.9,225-225S380.1,31,256,31z"/>
		</g>
	</g>
</g>
<g>
	<g>
		<g>
			<path d="M352.4,241H271v-81.4c0-8.3-6.7-15-15-15s-15,6.7-15,15V256c0,8.3,6.7,15,15,15h96.4c8.3,0,15-6.7,15-15
				S360.7,241,352.4,241z"/>
			<path d="M352.4,272H256c-8.8,0-16-7.2-16-16v-96.4c0-8.8,7.2-16,16-16s16,7.2,16,16V240h80.4c8.8,0,16,7.2,16,16
				S361.2,272,352.4,272z M256,145.6c-7.7,0-14,6.3-14,14V256c0,7.7,6.3,14,14,14h96.4c7.7,0,14-6.3,14-14s-6.3-14-14-14H270v-82.4
				C270,151.9,263.7,145.6,256,145.6z"/>
		</g>
	</g>
</g>
</svg>
