<?xml version="1.0" encoding="utf-8"?>
<!-- Generator: Adobe Illustrator 21.0.0, SVG Export Plug-In . SVG Version: 6.00 Build 0)  -->
<svg fill="white" version="1.1" id="Layer_1" xmlns="http://www.w3.org/2000/svg" xmlns:xlink="http://www.w3.org/1999/xlink" x="0px" y="0px"
	 width="512px" height="512px" viewBox="0 0 512 512" style="enable-background:new 0 0 512 512;" xml:space="preserve">
<g id="Microscope">
	<path d="M424,480v-8c0-13.3-10.7-24-24-24h-73.8l-2.9-11.5c82-32.7,121.9-125.7,89.3-207.6c-14.6-36.6-42.2-66.5-77.4-84l8.2-14.2
		l8.6,4.9c2.9,1.7,6.7,0.7,8.4-2.3l1.9-3.2c1.7-2.9,0.7-6.7-2.3-8.4l-22.4-12.9l16-27.7l8.5,4.9c2.9,1.7,6.7,0.7,8.4-2.3l1.9-3.2
		c1.7-2.9,0.7-6.7-2.3-8.4L269.9,14.3c-2.9-1.7-6.7-0.7-8.4,2.3l-1.9,3.2c-1.7,2.9-0.7,6.7,2.3,8.4l8.5,4.9l-16,27.7L232,47.9
		c-2.9-1.7-6.7-0.7-8.4,2.3l-1.9,3.2c-1.7,2.9-0.7,6.7,2.3,8.4l8.5,4.9l-80,138.6l-8.7-5c-2.9-1.7-6.5-0.7-8.2,2.2l-2,3.5
		c-1.7,2.9-0.7,6.5,2.2,8.2l36.4,21l-21,36.4c-1.7,2.9-0.7,6.6,2.2,8.2l45,26c2.9,1.7,6.6,0.7,8.2-2.2l21-36.3l36.4,21
		c2.9,1.7,6.5,0.7,8.2-2.2l2-3.5c1.7-2.9,0.7-6.5-2.2-8.2l-8.7-5l15.9-27.6c27.5,13.7,40.6,36.2,40.6,70.3
		c0.5,19.4-4.3,38.6-13.9,55.5l-2.5-9.9c-0.8-3.3-3.8-5.7-7.3-5.7h-80.8c-3.4,0-6.4,2.3-7.3,5.7l-2.6,10.3H102c-3.3,0-6,2.7-6,6v4
		c0,3.3,2.7,6,6,6h99.8l-16,64H112c-13.3,0-24,10.7-24,24v8H70c-3.3,0-6,2.7-6,6v4c0,3.3,2.7,6,6,6h372c3.3,0,6-2.7,6-6v-4
		c0-3.3-2.7-6-6-6H424z M284.3,41.2l55.4,32l-16,27.7l-55.4-32L284.3,41.2z M197.9,286.8l-27.7-16l16-27.7l27.7,16L197.9,286.8z
		 M166.5,213.3l79.9-138.6l83.1,48l-26.8,46.4c-12.6-3.8-26,3.4-29.8,16c-2.6,8.7-0.1,18.1,6.5,24.3l-29.9,51.9L166.5,213.3z
		 M296,200c-4.4,0-8-3.6-8-8s3.6-8,8-8s8,3.6,8,8S300.4,200,296,200z M336,312c0-39.5-16.5-67.7-48.7-84.2l6.9-12
		c0.6,0,1.2,0.2,1.8,0.2c13.3,0,24-10.8,24-24c0-4.8-1.5-9.5-4.2-13.5l11.4-19.7c71.4,34.8,101.1,120.9,66.2,192.3
		c-15.3,31.5-41.7,56.3-74,69.7l-8.2-32.8C328.1,366.4,336.8,339.5,336,312z M222.2,368h67.5l20,80H202.2L222.2,368z M408,480H104
		v-8c0-4.4,3.6-8,8-8h288c4.4,0,8,3.6,8,8V480z"/>
	<path d="M256,384c-13.3,0-24,10.7-24,24s10.7,24,24,24c13.3,0,24-10.7,24-24S269.3,384,256,384z M256,416c-4.4,0-8-3.6-8-8
		s3.6-8,8-8s8,3.6,8,8S260.4,416,256,416z"/>
</g>
</svg>
