<?xml version="1.0" encoding="iso-8859-1"?>
<!-- Generator: Adobe Illustrator 19.0.0, SVG Export Plug-In . SVG Version: 6.00 Build 0)  -->
<svg fill="white" version="1.1" id="Layer_1" xmlns="http://www.w3.org/2000/svg" xmlns:xlink="http://www.w3.org/1999/xlink" x="0px" y="0px"
	 viewBox="0 0 512 512" style="enable-background:new 0 0 512 512;" xml:space="preserve">
<g>
	<g>
		<path d="M479.92,173.913v219.904H32.072V173.913h-16v227.912c0,4.424,3.584,8,8,8H487.92c4.424,0,8-3.584,8-8.008V173.913H479.92z
			"/>
	</g>
</g>
<g>
	<g>
		<path d="M394.784,178.905L261.192,64.913c-2.992-2.552-7.392-2.552-10.384,0l-133.576,114c-2.552,2.176-3.48,5.704-2.32,8.848
			c1.16,3.144,4.152,5.232,7.504,5.232h267.168c3.352,0,6.344-2.096,7.512-5.24C398.256,184.609,397.328,181.081,394.784,178.905z
			 M144.112,176.993L256,81.521l111.88,95.472H144.112z"/>
	</g>
</g>
<g>
	<g>
		<path d="M495.304,170.817L462,91.713c-1.248-2.968-4.16-4.896-7.376-4.896h-170.72c-3.344,0-6.336,2.088-7.504,5.232
			c-1.16,3.144-0.232,6.672,2.312,8.848l92.704,79.104c1.448,1.232,3.288,1.912,5.192,1.912h111.32c2.68,0,5.184-1.344,6.664-3.568
			C496.08,176.113,496.344,173.289,495.304,170.817z M379.56,165.913l-73.952-63.104h143.704l26.568,63.104H379.56z"/>
	</g>
</g>
<g>
	<g>
		<path d="M235.592,92.041c-1.16-3.144-4.152-5.232-7.504-5.232H57.368c-3.216,0-6.128,1.928-7.376,4.896l-33.296,79.104
			c-1.04,2.472-0.776,5.296,0.712,7.528c1.48,2.232,3.984,3.576,6.664,3.576h111.32c1.904,0,3.744-0.68,5.192-1.912l92.688-79.112
			C235.824,98.713,236.752,95.185,235.592,92.041z M132.44,165.913H36.12l26.56-63.104h143.712L132.44,165.913z"/>
	</g>
</g>
<g>
	<g>
		<path d="M504,393.825H8c-4.416,0-8,3.576-8,8v39.176c0,4.424,3.584,8,8,8h496c4.424,0,8-3.576,8-8v-39.176
			C512,397.401,508.424,393.825,504,393.825z M496,433.001H16v-23.176h480V433.001z"/>
	</g>
</g>
<g>
	<g>
		<path d="M187.184,176.993h-49.92c-4.416,0-8,3.584-8,8v26.584c0,4.416,3.584,8,8,8h49.92c4.424,0,8-3.584,8-8v-26.584
			C195.184,180.577,191.6,176.993,187.184,176.993z M179.192,203.577h-33.92v-10.584h33.92V203.577z"/>
	</g>
</g>
<g>
	<g>
		<path d="M177.736,203.577h-31.008c-4.416,0-8,3.584-8,8v163.656c0,4.424,3.584,8,8,8h31.008c4.416,0,8-3.576,8-7.992V211.577
			C185.736,207.161,182.152,203.577,177.736,203.577z M169.736,367.233h-15.008V219.577h15.008V367.233z"/>
	</g>
</g>
<g>
	<g>
		<path d="M187.184,367.241h-49.92c-4.416,0-8,3.576-8,8v26.584c0,4.424,3.584,8,8,8h49.92c4.424,0,8-3.584,8-8v-26.584
			C195.184,370.817,191.6,367.241,187.184,367.241z M179.192,393.825h-33.92v-10.584h33.92V393.825z"/>
	</g>
</g>
<g>
	<g>
		<path d="M374.728,176.993h-49.912c-4.424,0-8,3.584-8,8v26.584c0,4.416,3.576,8,8,8h49.912c4.424,0,8-3.584,8-8v-26.584
			C382.728,180.577,379.152,176.993,374.728,176.993z M366.728,203.577h-33.912v-10.584h33.912V203.577z"/>
	</g>
</g>
<g>
	<g>
		<path d="M365.272,203.577h-31.008c-4.424,0-8,3.584-8,8v163.656c0,4.424,3.576,8,8,8h31.008c4.424,0,8-3.576,8-7.992V211.577
			C373.272,207.161,369.696,203.577,365.272,203.577z M357.272,367.233h-15.008V219.577h15.008V367.233z"/>
	</g>
</g>
<g>
	<g>
		<path d="M374.728,367.241h-49.912c-4.424,0-8,3.576-8,8v26.584c0,4.424,3.576,8,8,8h49.912c4.424,0,8-3.584,8-8v-26.584
			C382.728,370.817,379.152,367.241,374.728,367.241z M366.728,393.825h-33.912v-10.584h33.912V393.825z"/>
	</g>
</g>
<g>
	<g>
		<path d="M299.288,250.041h-86.576c-4.416,0-8,3.584-8,8v143.784c0,4.424,3.584,8,8,8h86.576c4.424,0,8-3.584,8-8.008V258.041
			C307.288,253.625,303.712,250.041,299.288,250.041z M291.288,393.825h-70.576V266.041h70.576V393.825z"/>
	</g>
</g>
<g>
	<g>
		<path d="M93.824,219.985H58.768c-4.416,0-8,3.584-8,8v40.2c0,4.424,3.584,8,8,8h35.056c4.416,0,8-3.584,8-8v-40.2
			C101.824,223.569,98.24,219.985,93.824,219.985z M85.824,260.185H66.768v-24.2h19.056V260.185z"/>
	</g>
</g>
<g>
	<g>
		<path d="M93.824,310.081H58.768c-4.416,0-8,3.576-8,8v40.2c0,4.424,3.584,8,8,8h35.056c4.416,0,8-3.576,8-8v-40.2
			C101.824,313.657,98.24,310.081,93.824,310.081z M85.824,350.281H66.768v-24.2h19.056V350.281z"/>
	</g>
</g>
<g>
	<g>
		<path d="M453.224,219.985h-35.056c-4.424,0-8,3.584-8,8v40.2c0,4.424,3.576,8,8,8h35.056c4.424,0,8-3.584,8-8v-40.2
			C461.224,223.569,457.648,219.985,453.224,219.985z M445.224,260.185h-19.056v-24.2h19.056V260.185z"/>
	</g>
</g>
<g>
	<g>
		<path d="M453.224,310.081h-35.056c-4.424,0-8,3.576-8,8v40.2c0,4.424,3.576,8,8,8h35.056c4.424,0,8-3.576,8-8v-40.2
			C461.224,313.657,457.648,310.081,453.224,310.081z M445.224,350.281h-19.056v-24.2h19.056V350.281z"/>
	</g>
</g>
<g>
</g>
<g>
</g>
<g>
</g>
<g>
</g>
<g>
</g>
<g>
</g>
<g>
</g>
<g>
</g>
<g>
</g>
<g>
</g>
<g>
</g>
<g>
</g>
<g>
</g>
<g>
</g>
<g>
</g>
</svg>
