<?xml version="1.0" encoding="utf-8"?>
<!-- Generator: Adobe Illustrator 21.0.0, SVG Export Plug-In . SVG Version: 6.00 Build 0)  -->
<svg fill="white" version="1.1" id="Capa_1" xmlns="http://www.w3.org/2000/svg" xmlns:xlink="http://www.w3.org/1999/xlink" x="0px" y="0px"
	 width="480px" height="480px" viewBox="0 0 480 480" style="enable-background:new 0 0 480 480;" xml:space="preserve">
<g>
	<g>
		<path d="M447.2,416.7c5.7-7,8.8-15.7,8.8-24.7v-16c0-22.1-17.9-40-40-40s-40,17.9-40,40v16c0,9,3.1,17.7,8.8,24.7
			c-9.9,1.8-18.8,7.4-24.8,15.5c-6-8.1-14.9-13.7-24.8-15.5c5.7-7,8.8-15.7,8.8-24.7v-16c0-22.1-17.9-40-40-40s-40,17.9-40,40v16
			c0,9,3.1,17.7,8.8,24.7c-9.9,1.8-18.8,7.4-24.8,15.5c-6-8.1-14.9-13.7-24.8-15.5c5.7-7,8.8-15.7,8.8-24.7v-16
			c0-22.1-17.9-40-40-40s-40,17.9-40,40v16c0,9,3.1,17.7,8.8,24.7c-19,3.5-32.8,20-32.8,39.3v24h16v-24c0-13.3,10.7-24,24-24h48
			c13.3,0,24,10.7,24,24v24h16v-24c0-13.3,10.7-24,24-24h48c13.3,0,24,10.7,24,24v24h16v-24c0-13.3,10.7-24,24-24h48
			c13.3,0,24,10.7,24,24v24h16v-24C480,436.7,466.2,420.2,447.2,416.7z M216,392c0,13.3-10.7,24-24,24s-24-10.7-24-24v-16
			c0-13.3,10.7-24,24-24s24,10.7,24,24V392z M328,392c0,13.3-10.7,24-24,24s-24-10.7-24-24v-16c0-13.3,10.7-24,24-24s24,10.7,24,24
			V392z M440,392c0,13.3-10.7,24-24,24s-24-10.7-24-24v-16c0-13.3,10.7-24,24-24s24,10.7,24,24V392z"/>
	</g>
</g>
<g>
	<g>
		<path d="M194.9,160.6c-0.9-0.4-1.9-0.6-2.9-0.6h-32c-3.4,0-6.4,2.1-7.5,5.3l-8.5,23.3l-0.3-0.8c-6.1-16.7-22-27.8-39.7-27.8h-0.2
			c5.3-6.9,8.2-15.3,8.2-24v-16c0-22.1-17.9-40-40-40s-40,17.9-40,40v16c0,8.7,2.9,17.1,8.2,24H40c-22.1,0-40,17.9-40,40v96
			c0,4.4,3.6,8,8,8h24v77.6l-14.7,22c-2.5,3.7-1.5,8.6,2.2,11.1c1.3,0.9,2.9,1.3,4.4,1.3h96c4.4,0,8-3.6,8-8c0-1.6-0.5-3.1-1.3-4.4
			l-14.7-22V233.9l2,4c8.1,16.2,27.7,22.7,43.9,14.6c7.2-3.6,12.8-9.7,15.7-17.1l13-32.5l12.8-32C201.1,166.8,199,162.2,194.9,160.6
			z M48,120c0-13.3,10.7-24,24-24s24,10.7,24,24v16c0,13.3-10.7,24-24,24s-24-10.7-24-24V120z M32,288H16v-16h16V288z M80,400v-96
			H64v96H39l7.7-11.6c0.9-1.3,1.3-2.9,1.3-4.4v-96h48v96c0,1.6,0.5,3.1,1.3,4.4L105,400H80z M158.8,229.5
			c-3.4,8.6-13.2,12.7-21.7,9.3c-3.8-1.5-6.9-4.4-8.7-8l-17.1-34.3c-1.9-4-6.7-5.6-10.7-3.7c-2.8,1.4-4.5,4.2-4.5,7.3v72H48v-71.7
			c0-4.3-3.2-8-7.5-8.3c-4.7-0.3-8.5,3.4-8.5,8v56H16v-56c0-13.3,10.7-24,24-24h24v74.1c0,3.2,2.6,5.9,5.9,5.9h4.3
			c3.2,0,5.9-2.6,5.9-5.9V176h24c11,0,20.9,6.9,24.7,17.3l7.8,21.4c1.5,4.3,6.3,6.4,10.6,4.7c2.1-0.9,3.8-2.7,4.5-4.9l2.4-6.5h13.4
			L158.8,229.5z M173.8,192h-14l5.8-16h14.6L173.8,192z"/>
	</g>
</g>
<g>
	<g>
		<path d="M472,48c4.4,0,8-3.6,8-8V8c0-4.4-3.6-8-8-8H136c-4.4,0-8,3.6-8,8v32c0,4.4,3.6,8,8,8h8v92.9c0,1.7,1.4,3.1,3.1,3.1h9.9
			c1.7,0,3.1-1.4,3.1-3.1V48h288v176H195c-1.7,0-3,1.4-3,3v9.9c0,1.7,1.4,3,3,3h101v35.4l-47.3,27c-2.6,1.5-3.5,4.8-2,7.3l2.6,4.5
			c1.5,2.6,4.8,3.5,7.3,2l39.4-22.5V315c0,2.8,2.2,5,5,5h6c2.8,0,5-2.2,5-5v-21.2l39.5,22.6c2.5,1.4,5.7,0.6,7.1-1.9l2.8-4.8
			c1.4-2.5,0.6-5.7-1.9-7.1L312,275.4V240h168v-16h-16V48H472z M144,32V16h320v16H144z"/>
	</g>
</g>
<g>
	<g>
		<path d="M393.9,88.2l-32-8l-3.9,15.5l15,3.7L312.3,142L277,113.8c-2.8-2.2-6.7-2.3-9.6-0.3l-56,40l9.3,13l51.1-36.5l35.3,28.2
			c2.8,2.2,6.7,2.3,9.6,0.3l67.4-47.2V128h16V96C400,92.3,397.5,89.1,393.9,88.2z"/>
	</g>
</g>
</svg>
